<?xml version="1.0" standalone="no"?>
<!DOCTYPE svg PUBLIC "-//W3C//DTD SVG 20010904//EN"
 "http://www.w3.org/TR/2001/REC-SVG-20010904/DTD/svg10.dtd">
<svg version="1.0" xmlns="http://www.w3.org/2000/svg"
 width="512.000000pt" height="512.000000pt" viewBox="0 0 512.000000 512.000000"
 preserveAspectRatio="xMidYMid meet">
<metadata>
Created by potrace 1.11, written by Peter Selinger 2001-2013
</metadata>
<g transform="translate(0.000000,512.000000) scale(0.100000,-0.100000)"
fill="#000000" stroke="none">
<path d="M0 2847 c0 -1510 2 -1715 15 -1734 16 -23 92 -55 184 -78 31 -8 106
-28 166 -45 61 -17 211 -55 335 -85 124 -30 277 -68 340 -85 183 -49 342 -89
380 -95 19 -3 94 -21 165 -39 72 -19 148 -36 170 -39 22 -3 47 -8 55 -11 8 -4
44 -12 80 -20 36 -8 106 -23 155 -34 50 -12 104 -23 122 -26 18 -4 44 -11 58
-16 15 -6 37 -10 51 -10 l24 0 1 268 c0 147 3 276 7 287 3 11 7 350 9 753 l4
732 -361 0 -360 0 0 245 0 245 290 1 c160 1 293 2 298 4 4 1 24 5 44 9 49 10
56 21 73 102 18 85 21 627 4 720 -16 88 -40 108 -170 143 -41 10 -202 53 -359
95 -157 41 -303 78 -324 82 -39 6 -162 37 -456 114 -85 22 -186 48 -225 56
-90 20 -96 21 -140 28 -20 4 -87 19 -148 35 -121 31 -231 56 -287 66 -19 3
-60 12 -90 19 -30 8 -67 17 -82 20 l-28 6 0 -1713z"/>
<path d="M4945 4519 c-88 -21 -171 -41 -185 -44 -14 -3 -81 -19 -150 -36 -69
-16 -141 -32 -160 -35 -71 -10 -132 -23 -210 -44 -25 -7 -52 -14 -60 -15 -8
-2 -82 -22 -165 -44 -82 -22 -238 -61 -345 -86 -226 -54 -225 -54 -247 -59
-10 -2 -115 -29 -233 -60 -118 -31 -228 -59 -245 -62 -16 -3 -43 -7 -60 -10
-71 -12 -65 37 -65 -490 l0 -474 350 0 350 0 0 -245 0 -245 -297 -1 c-296 -1
-328 -2 -391 -14 l-33 -6 6 -177 c3 -97 8 -550 11 -1007 3 -456 7 -831 9 -834
3 -2 29 1 57 7 29 6 73 14 98 17 25 3 52 8 60 10 8 2 29 7 45 9 17 3 102 24
190 47 244 63 344 87 467 113 62 13 192 45 288 71 96 26 182 49 190 51 74 19
189 46 205 49 53 11 170 40 265 67 58 16 114 31 125 34 76 16 242 71 268 88
l32 22 3 1722 c1 947 -1 1722 -5 1721 -5 0 -80 -18 -168 -40z"/>
</g>
</svg>
